<!DOCTYPE svg PUBLIC "-//W3C//DTD SVG 20010904//EN" "http://www.w3.org/TR/2001/REC-SVG-20010904/DTD/svg10.dtd">
<svg version="1.0" xmlns="http://www.w3.org/2000/svg" width="638px" height="598px" viewBox="0 0 6380 5980" preserveAspectRatio="xMidYMid meet">
<g id="layer101" fill="#ae0f64" stroke="none">
 <path d="M0 2990 l0 -2990 3190 0 3190 0 0 2990 0 2990 -3190 0 -3190 0 0 -2990z"/>
 </g>
<g id="layer102" fill="#ffffff" stroke="none">
 <path d="M1034 5353 c32 -91 1868 -4719 1874 -4725 6 -6 840 2083 850 2129 4 14 -8 15 -85 9 -80 -6 -296 4 -448 20 l-60 6 -124 -196 c-68 -109 -127 -193 -131 -189 -6 6 -94 297 -236 775 -4 15 -1 15 43 2 126 -38 329 -75 518 -94 157 -16 552 -13 738 5 822 80 1669 364 2065 694 72 60 84 90 15 37 -243 -183 -615 -300 -1077 -337 -190 -15 -681 -6 -866 15 -394 47 -697 117 -974 226 -701 276 -1345 780 -2073 1623 -18 20 -35 37 -37 37 -3 0 1 -17 8 -37z"/>
 <path d="M4772 5353 c-62 -90 -943 -1505 -939 -1509 8 -8 121 -22 238 -30 l107 -7 50 129 c39 101 460 1165 553 1397 21 54 19 59 -9 20z"/>
 </g>

</svg>